<?xml version="1.0" standalone="no"?>
<svg xmlns:xlink="http://www.w3.org/1999/xlink" id="wave" style="transform:rotate(180deg); transition: 0.3s" viewBox="0 0 1440 140" version="1.1" xmlns="http://www.w3.org/2000/svg"><defs><linearGradient id="sw-gradient-0" x1="0" x2="0" y1="1" y2="0"><stop stop-color="rgba(255, 249, 234, 1)" offset="0%"/><stop stop-color="rgba(255, 249, 234, 1)" offset="100%"/></linearGradient></defs><path style="transform:translate(0, 0px); opacity:1" fill="url(#sw-gradient-0)" d="M0,126L60,114.3C120,103,240,79,360,67.7C480,56,600,56,720,56C840,56,960,56,1080,60.7C1200,65,1320,75,1440,77C1560,79,1680,75,1800,67.7C1920,61,2040,51,2160,56C2280,61,2400,79,2520,91C2640,103,2760,107,2880,93.3C3000,79,3120,47,3240,49C3360,51,3480,89,3600,98C3720,107,3840,89,3960,77C4080,65,4200,61,4320,65.3C4440,70,4560,84,4680,93.3C4800,103,4920,107,5040,107.3C5160,107,5280,103,5400,86.3C5520,70,5640,42,5760,42C5880,42,6000,70,6120,74.7C6240,79,6360,61,6480,51.3C6600,42,6720,42,6840,44.3C6960,47,7080,51,7200,58.3C7320,65,7440,75,7560,84C7680,93,7800,103,7920,109.7C8040,117,8160,121,8280,105C8400,89,8520,51,8580,32.7L8640,14L8640,140L8580,140C8520,140,8400,140,8280,140C8160,140,8040,140,7920,140C7800,140,7680,140,7560,140C7440,140,7320,140,7200,140C7080,140,6960,140,6840,140C6720,140,6600,140,6480,140C6360,140,6240,140,6120,140C6000,140,5880,140,5760,140C5640,140,5520,140,5400,140C5280,140,5160,140,5040,140C4920,140,4800,140,4680,140C4560,140,4440,140,4320,140C4200,140,4080,140,3960,140C3840,140,3720,140,3600,140C3480,140,3360,140,3240,140C3120,140,3000,140,2880,140C2760,140,2640,140,2520,140C2400,140,2280,140,2160,140C2040,140,1920,140,1800,140C1680,140,1560,140,1440,140C1320,140,1200,140,1080,140C960,140,840,140,720,140C600,140,480,140,360,140C240,140,120,140,60,140L0,140Z"/></svg>